<svg width="585" height="302" viewBox="0 0 585 302" fill="none" xmlns="http://www.w3.org/2000/svg">
<g clip-path="url(#clip0_2013_15)">
<path d="M17.7095 0H158.394C190.98 0 219.882 6.0921 245.101 18.2763C270.319 30.4605 289.871 47.7451 303.755 70.13C317.639 92.5149 324.581 118.725 324.581 148.761C324.581 178.796 317.639 205.006 303.755 227.391C289.871 249.776 270.319 267.061 245.101 279.245C219.882 291.429 190.98 297.521 158.394 297.521H17.7095V0ZM154.994 230.366C180.496 230.366 200.898 223.141 216.199 208.69C231.783 194.239 239.575 174.262 239.575 148.761C239.575 123.259 231.783 103.282 216.199 88.8313C200.898 74.3803 180.496 67.1548 154.994 67.1548C154.994 67.1548 121.595 63.7078 101.865 70.13C41.2576 89.8591 41.2576 207.662 101.865 227.391C121.595 233.814 154.994 230.366 154.994 230.366Z" fill="#FF71BB"/>
<path d="M566.849 236.033C576.313 259.6 566.849 301.063 566.849 301.063H300.355V253.46L362.835 179.079H322.882V119.575H412.988L455.491 68.5714C455.491 68.5714 327.641 122.805 304.18 68.5714C294.032 45.1107 304.18 3.1167 304.18 3.1167H560.474V50.7201L501.395 121.275H538.372V180.354H451.666L404.913 236.033C404.913 236.033 543.283 177.348 566.849 236.033Z" fill="#FF71BB"/>
</g>
<defs>
<clipPath id="clip0_2013_15">
<rect width="584.417" height="301.063" fill="white"/>
</clipPath>
</defs>
</svg>
