<svg width="854" height="126" viewBox="0 0 854 126" fill="none" xmlns="http://www.w3.org/2000/svg">
<path d="M0 17.3737H50.7849C62.5477 17.3737 72.9809 19.5775 82.0843 23.985C91.1877 28.3925 98.2454 34.645 103.257 42.7425C108.269 50.84 110.775 60.3212 110.775 71.1862C110.775 82.0512 108.269 91.5325 103.257 99.63C98.2454 107.727 91.1877 113.98 82.0843 118.387C72.9809 122.795 62.5477 124.999 50.7849 124.999H0V17.3737ZM49.5574 100.706C58.7631 100.706 66.1277 98.0925 71.6511 92.865C77.2769 87.6375 80.0897 80.4112 80.0897 71.1862C80.0897 61.9612 77.2769 54.735 71.6511 49.5075C66.1277 44.28 58.7631 42.7425 49.5574 42.7425C49.5574 42.7425 41.2609 43.0402 34.01 44.9207C21.6591 48.1238 21.6591 96.1707 34.01 99.3738C41.2609 101.254 49.5574 100.706 49.5574 100.706ZM217.456 101.475C220.872 110 217.456 124.999 217.456 124.999H121.257V107.779L143.811 80.8725H129.388V59.3475H161.915L177.258 40.8975C177.258 40.8975 131.106 60.5159 122.637 40.8975C118.974 32.4109 122.637 17.22 122.637 17.22H215.155V34.44L193.828 59.9625H207.177V81.3337H175.877L159 101.475C159 101.475 208.949 80.2463 217.456 101.475ZM345.396 115.466C339.873 118.644 333.173 121.155 325.297 123C317.421 124.845 309.238 125.768 300.748 125.768C289.292 125.768 279.524 124.384 271.443 121.616C263.465 118.849 257.43 115.005 253.339 110.085C249.35 105.165 247.354 99.4763 247.354 93.0188C247.354 87.3813 248.889 82.41 251.958 78.105C255.026 73.8 259.271 70.4688 264.693 68.1113C260.499 65.9588 257.277 62.9862 255.026 59.1937C252.878 55.2987 251.804 51.045 251.804 46.4325C251.804 40.4875 253.646 35.055 257.328 30.135C261.112 25.215 266.841 21.2687 274.512 18.2962C282.184 15.3237 291.645 13.8375 302.896 13.8375C309.954 13.8375 316.909 14.5038 323.763 15.8363C330.616 17.1688 336.651 18.9625 341.867 21.2175L333.582 43.9725C324.069 39.77 314.25 37.6687 304.124 37.6687C296.861 37.6687 291.44 38.6425 287.86 40.59C284.28 42.435 282.49 45.0488 282.49 48.4313C282.49 54.5813 286.94 57.6562 295.839 57.6562H326.218V80.8725H293.844C288.627 80.8725 284.69 81.7437 282.03 83.4862C279.371 85.1262 278.041 87.5862 278.041 90.8662C278.041 94.3512 279.984 97.0675 283.871 99.015C287.758 100.962 293.793 101.936 301.976 101.936C307.806 101.936 313.79 101.167 319.927 99.63C326.166 97.99 340.793 95.7863 345.396 93.0188V115.466ZM384.811 124.999C377.856 124.999 371.003 124.23 364.252 122.693C357.501 121.053 349.487 118.029 345.396 115.466V93.0188C349.181 95.3763 365.019 100.655 370.236 102.09C375.452 103.422 380.618 104.089 385.732 104.089C390.437 104.089 393.761 103.627 395.705 102.705C397.75 101.68 398.773 100.245 398.773 98.4C398.773 96.555 397.546 95.2738 395.091 94.5563C392.738 93.7363 388.954 92.9675 383.737 92.25C377.089 91.43 371.412 90.3537 366.707 89.0212C362.104 87.6887 358.115 85.2287 354.739 81.6412C351.364 78.0537 349.676 73.0313 349.676 66.5738C349.676 61.2438 351.262 56.5287 354.432 52.4287C357.603 48.2262 362.206 44.9463 368.241 42.5888C374.378 40.1288 381.692 38.8988 390.181 38.8988C396.216 38.8988 402.2 39.5138 408.132 40.7438C414.065 41.9738 419.026 43.7163 423.015 45.9713L414.27 65.805C406.905 61.705 398.927 59.655 390.335 59.655C385.732 59.655 382.356 60.2188 380.208 61.3463C378.06 62.3713 376.986 63.755 376.986 65.4975C376.986 67.445 378.163 68.8288 380.515 69.6488C382.868 70.3663 386.755 71.135 392.176 71.955C399.029 72.98 404.706 74.1587 409.206 75.4912C413.707 76.8237 417.594 79.2837 420.867 82.8712C424.242 86.3562 425.93 91.2762 425.93 97.6312C425.93 102.859 424.345 107.574 421.174 111.776C418.003 115.876 413.298 119.105 407.058 121.462C400.921 123.82 393.506 124.999 384.811 124.999ZM492.039 120.232C489.584 121.77 486.566 122.949 482.986 123.769C479.509 124.589 475.775 124.999 471.786 124.999C460.944 124.999 452.608 122.334 446.777 117.004C441.049 111.674 438.185 103.73 438.185 93.1725V21.6787H467.337V43.3575H486.208V65.19H467.337V92.865C467.337 95.94 468.104 98.2975 469.638 99.9375C471.172 101.578 473.269 102.397 475.929 102.397C479.304 102.397 482.27 101.526 484.828 99.7838L492.039 120.232ZM590.674 40.2825V81.9487V100.856C590.674 101.931 591.524 102.814 592.598 102.855L637.25 104.55V123.615H569.903C566.037 123.615 562.903 120.481 562.903 116.615V114.697C559.835 118.08 556.153 120.643 551.857 122.385C547.561 124.128 543.009 124.999 538.201 124.999C527.461 124.999 518.869 121.821 512.425 115.466C506.084 109.111 502.913 99.5787 502.913 86.8687V40.2825H532.064V82.1025C532.064 88.355 533.241 92.9162 535.593 95.7862C537.946 98.6562 541.372 100.091 545.873 100.091C550.476 100.091 554.209 98.5025 557.073 95.325C560.039 92.045 561.523 87.0737 561.523 80.4112V40.2825H590.674ZM697.829 9.5325V123.615H670.059V115.312C664.638 121.77 656.506 124.999 645.663 124.999C638.094 124.999 631.19 123.256 624.951 119.771C618.711 116.184 613.75 111.11 610.068 104.55C606.488 97.99 604.695 90.405 604.695 81.795C604.695 73.185 606.488 65.6512 610.068 59.1937C613.75 52.6337 618.711 47.6113 624.951 44.1263C631.19 40.6413 638.094 38.8988 645.663 38.8988C655.585 38.8988 663.257 41.7688 668.678 47.5088V9.5325H697.829ZM651.801 101.782C656.813 101.782 660.955 100.04 664.228 96.555C667.501 92.9675 669.138 88.0475 669.138 81.795C669.138 75.645 667.501 70.8275 664.228 67.3425C661.057 63.8575 656.915 62.115 651.801 62.115C646.686 62.115 642.493 63.8575 639.219 67.3425C635.946 70.8275 634.31 75.645 634.31 81.795C634.31 88.0475 635.946 92.9675 639.219 96.555C642.493 100.04 646.686 101.782 651.801 101.782ZM716.579 40.2825H745.731V123.615H716.579V40.2825ZM731.155 31.0575C725.836 31.0575 721.54 29.5712 718.267 26.5987C714.994 23.6262 713.357 19.9362 713.357 15.5287C713.357 11.1212 714.994 7.43125 718.267 4.45875C721.54 1.48625 725.836 0 731.155 0C736.474 0 740.77 1.435 744.043 4.305C747.316 7.0725 748.953 10.66 748.953 15.0675C748.953 19.68 747.316 23.5237 744.043 26.5987C740.77 29.5712 736.474 31.0575 731.155 31.0575ZM806.412 124.999C797.513 124.999 789.484 123.154 782.324 119.464C775.164 115.774 769.538 110.649 765.446 104.089C761.457 97.5287 759.463 90.0975 759.463 81.795C759.463 73.595 761.457 66.215 765.446 59.655C769.538 53.095 775.112 48.0213 782.17 44.4338C789.33 40.7438 797.411 38.8988 806.412 38.8988C815.413 38.8988 823.494 40.7438 830.654 44.4338C837.814 48.0213 843.388 53.095 847.377 59.655C851.367 66.1125 853.361 73.4925 853.361 81.795C853.361 90.0975 851.367 97.5287 847.377 104.089C843.388 110.649 837.814 115.774 830.654 119.464C823.494 123.154 815.413 124.999 806.412 124.999ZM806.412 101.782C811.526 101.782 815.72 100.04 818.993 96.555C822.266 92.9675 823.903 88.0475 823.903 81.795C823.903 75.645 822.266 70.8275 818.993 67.3425C815.72 63.8575 811.526 62.115 806.412 62.115C801.298 62.115 797.104 63.8575 793.831 67.3425C790.558 70.8275 788.921 75.645 788.921 81.795C788.921 88.0475 790.558 92.9675 793.831 96.555C797.104 100.04 801.298 101.782 806.412 101.782Z" fill="#FF71BB"/>
</svg>
